<svg xmlns="http://www.w3.org/2000/svg" xml:space="preserve" viewBox="2.69 1.89 394.62 90.02"><path fill="#fff" d="M0 0h400v93.7H0z"/><path fill="#0089cf" d="M3.8 3.8h86.5v86.5H3.8z"/><path fill="#fff" d="M6 6h82v82.2H6z"/><path fill="#0089cf" d="M73.6 26a33.5 33.5 0 010 42.2v-1.6a33 33 0 000-39zm0 33 .3.2 1.1-.6-1.4-.6zm0-3c1 .2 2.3-.8 2.4-2.2l-.9.1q-.5 1.5-1.5 1.2zm0-3 .3.3.9-.7c-1.2-1.8-1.1-3.4-.4-3.5.9-.1 1.5 1.2 1.3 2.5l1-.6q-.6-2.4-2.4-2.5-.3 0-.7.3zm0-6h2.7l.6-.9h-3.3zm0-3.9h1.8l.5-1h-2.3zm0-2.3h1.8l.5-1h-2.3zM68 20.4v1.4q3.1 2.5 5.5 5.7V26a40 40 0 00-5.5-5.6m5.5 47.8v-1.6q-2.4 3.2-5.5 6v1.1q3-2.4 5.5-5.5m0-28.3H72l-.6 1h2.2zm0 2.3H72l-.7 1h2.3zm0 4h-1.3v-1h-.8q.3 1 .2 1.9 0 7.3-3.6 13v1l.7-1.2c.7-.2 1.7-.3 2.1.1 1.5 1.4.3 2.8-.4 3-1 .2-.9-1 0-1.6l-.4-.8c-1.4 1-1.6 2.6-.1 3.2 1 .4 2.4-.5 2.6-1.7.6-2.7-1.8-3.4-3.3-3l.8-1.6 3.5 1.5v-1l-3.1-1.3a25 25 0 001.5-6h1l.3 1q-1.4 1.7-.8 3.4.3.9 1 1v-1q-.8-.5 0-2v-4.3q-.5.4-.5 1H72q.3-1.3.3-2.7h1.2zm-5.5 24v-.8h.6v.8zm0-4.2v-1.4q.6 0 .7.7-.1.7-.7.7m0-11.6v-4l.2-3.3-.2-3.3v-4q1.2 3.4 1.2 7.3 0 3.8-1.2 7.3M68 38v-1q0 1 2.1 1v.4q-1.5.3-2.1-.4m0-1.4V34l2.6-4.6-2.6.5v-.6l4.8-.8-4.4 7zM68 25v-1.2l.7-.2zm-7.6-9.1q4 1.8 7.6 4.5v1.4q-3.6-3-7.6-4.8zM68 73.7q-3.6 2.8-7.6 4.6v-1.1q4-1.9 7.6-4.7zm0-49.9V25l-2.3 4.7 2.3-.4v.6l-4 .6 2.6-5.6c-1.8 1-4.2 2-6.2 2v-.6c2.4 0 5.2-1.4 7.6-2.5M68 34l-.6 1q-.9 1.6.6 3zm0 5.8a22 22 0 00-7.6-10.4v1.2A21 21 0 0168 43.8zm0 10.5v4.1a23 23 0 01-7.6 10.4v-1.3A21 21 0 0068 50.3m0 9.9v1a21 21 0 01-3 3.5l1.2 1.5-2 1.4c-.6.4 0 1.3.8.5.7-.7 1.4-1.6 2.2-1 .9.5.6 1.4 0 2.3h.8v.8l-1.6.3-.4.8-.7-.1.4-.9-1.3.3V70q1.4-.3 2.1-1.3c.5-.7-.2-1-.8-.4s-2 1.2-2.5.9c-1-.9 0-2.3 1.8-3l-.6-.9q-1.9 1.7-4 3v-.7q4.6-3 7.6-7.5m0 4.4q-.8 0-.8.7t.8.7zm-7.6 7 .7 1.5h1.1l-1.8-3.6zm0-12.6V58h2V37h-2v-1h2.8v23zm0-2.7q.6-.5.6-1.3t-.6-1.2zm0-2.9q.3 0 .4-1 0-.5-.4-1zm0-5.2v-7h.4l.6 1.2h-.9v5.9zm0-7.7v-1.6q.6 0 .7.9 0 .6-.7.7m-2-25.3v1l2 .8v-1.1zm2 63v-1l-2 .8V79q1-.6 2-.8m0-52-2-.2v.6q.9.2 2 .2zm0 3.1-2-1.4v1.2l2 1.4zm0 6.6v1h-2v-1zm0 3v1.5q-.8-.1-.8-.7 0-.8.8-.9m0 2.3v7l-1-.6v-1.7l-1 .6v-1.7l.3.6q.4-.2.6-.5v-.6h-.1q-.3-.3-.8-.3v-.8l1 .8v-1.5h-1v-1.9q0 .3.6.6h.3l-1-1.2v-1c.7.8 1 1.6 1.7 2.2zm0 10.2q-.5-.4-1.4-.5h-.6V52h.3q.8 0 .9.6 0 .8-.9.6h-.3v1h.4q.8 0 .9.7 0 1-.9 1h-.4v.9h.2q1.4 0 1.8-.5v-2.5l-.4-.1.4-.3zm0 6.7h-2v.9h2zm0 5.4-2 1.5v1.2l2-1.4zm0 4.2-2 1.2v.7l.7-.3.6 1-1.3.7v1l1.6-1 .4.5v-2l-.5-.8.5-.3zM58 15l.5.3v1q-.4 0-.5-.2zm.5 64.2-.5.1v-1l.5-.2zm0-53v.6l-.5-.1V26zm0 2v1.2L58 29v-1.2zm0 8H58v1h.5zm0 3q-.3 0-.5-.3v.8l.5.5zm0 1.6q-.4-.1-.5-.4v1h.1-.1v1.3h.5zm0 2.6H58v.9l.5-.1zm0 1.6-.5-.6v1.3l.1.1H58v.9h.5zm0 6.1v.9H58v-1zm0 2.3v1H58v-1zm0 2.6v1H58v-1zm0 2.3v.9H58V58zm0 6.9v1.2q-.4 0-.5.2v-1.2zm0 4v.6q-.3 0-.5.3V69l.5-.2m0 2v1l-.3.1q.3 1.5-.2 2.4V71zm-1.1-56v1l.6.1v-1zm.6 64.4v-1l-.6.2v1zM58 26l-.6-.3v.5l.6.4zm0 1.8q-.2-.3-.6-.4v1.2q.4.1.6.4zm0 8.2v1h-.6v-1zm0 2.7v.8l-.4-.5h-.2v-.8l.1.1zm0 1.5v1l-.6-.5V40zm0 1v1.3h-.6v-1.3zm0 2v2.3l-.6-.8v-1.5zm0 2.4v.9l-.6-.1v-.8zm0 5.3h-.6V52h.6zm0 2.3h-.6v1h.6zm0 2.6h-.6v1h.6zm0 2.3h-.6v.9h.6zm0 7-.6.5v1.2l.6-.4zm0 4-.6.3v.7l.6-.2zm0 2h-.3l-.3-.7V75q.4 0 .6-.6zm-1.5-56.5q.5 0 .9.2v1l-.9-.3zm.9 64.7-.9.4v-1l.9-.3zm0-53.6v.5zm0 1.7v1.2l-.9-.5v-1zm0 8.6h-.9v1h.9zm0 2.2-.9-.4v.9h.2l.7.2zm0 1.7-.1-.1q-.4-.4-.8-.4v.8h.2l.7.5zm0 1.3h-.9v1.3h.9zm0 2a1 1 0 00-.9.4V46q.4.3.9.4v-.8q-.4 0-.5-.2-.4-.5.4-1v.3zm0 7.7v5.9h-.9v-5.9zm0 7.2v.9h-.9v-1zm0 7.5v1.2q-.4 0-.9.4V66q.5 0 .9-.4m0 3.8v.7h-.1V75l-.8.1v-.6c.8.2 1.1-1 .6-2l-.6.1v-1q.2 0 .3-.2l-.3-.6v-1zM47 13v1.1q4.9 0 9.4 1.3v-1Q51.9 13 47 13m9.4 66.6v-1Q52 80 47.1 80v1a35 35 0 009.4-1.4m0-52.7a21 21 0 00-9.4-2.1v1q5 0 9.4 2.2zm0 9h-2.8V58h-1.5v-1.3h-1l-.5-.7v-2.5c.3-.5.6-.3 1-1.2l.3-.8c.2 0 .3-.6.3-1h-1c0 1-.8 1.3-1.2 1.3V50q.4 0 1-.7l.4-.6.5-.5v-.5h-1.2l-.1.8h-1.4v-1.2c.6-.3 1.5-.7 1.6-1.5l.7-.4v-.7h-1l-.3.6c-.2.5-1.3.4-1.2.4v-1.4q1-.4 1.4-1l.6-.3v-1h-1q0 .6-.6 1h-.6v-1q1-.3 1.4-1.4l.6-.3v-.7h-1q-.1.4-.6.9h-.6v-1q1-.5 1.1-1.6h.7v-1h-1c-.3 1.2-.8 1.2-1 1v-1c.6-.3.6-.4 1.2-1 .5-.2.8-1.3.4-1.2h-.5c-.4 0-.4.6-.6.8l-.7.2v-1.1q1-.2 1.4-1.3h.4v-.6h-.9q-.2.6-.8.8c-.5-.4-.6-.4-.7-1 0-.8.8-1.5.2-2.5l-.1-.6c0-1-.4-1-.7-1.4v31h9.4v-.8h-2.1V37h2.1zm0 1.8v.9h-.7l-.5-.9zm0 1.6v.8H56l-.6-1h1zm0 1.8v1.3H56l-.4-1.3zm0 2.4V46q-.5-.5-.6-1.2 0-.8.6-1.2m0 7.3h-.2v5.9h.2zm0 15.1a21 21 0 01-9.4 2.3v1q5-.1 9.4-2zm0 3.8q-4.4 1.9-9.4 1.9v4.9l.6.5v-2l1.2-.7c.8-.6 2.2-1 2.6-.2.2.7-1 1.2-2.2 1l-.3 1c1 0 2.5.1 3-1s0-2.2-1.6-2.2q-1.3 0-2.7.8v-1.5q4.6 0 8.7-1.7l.1.2zm0 1.9c-2.1 1-1.9 2.7-.6 3.3l.6.1v-.6h-.4q-1.1-1 .4-1.9zM47.1 21v-1l2.8-4.7 2.4 7.8q1 2.9 3 .3l.4.4c-1.6 2.2-3.8 1.6-4.4-.2l-2-6zm0 60a34 34 0 01-11.6-2v-1q5.5 1.9 11.6 2zM35.5 15.2a34 34 0 0111.6-2v1q-6.1 0-11.6 2zM47.1 20v1l-1.4 2.1-2.4-5.6c-.8 3.2-2.6 7.5-5.2 7.9l-.4-.3c3.6-1.3 4.6-6.3 5.9-10l2.6 6.2zm0 4.8v1q-6.4.1-11.6 3.4V28a22 22 0 0111.6-3m0 3v31H35.5v-.8h4.1V37h-4v-1h4.9v22.1h1.4V57h1l.6-.8v-2.5q-1-.5-1.4-2l-.4-.2v-.7h.8q.3 1.2 1.2 1.2v-2q-.7 0-1.2-1.1l-.1-.4-.6-.3v-.5H43l.1.8h.6l.1-1.2a5 5 0 01-1.4-1.8H42v-.8h1v.6c0 .5 1 .4 1 .4v-1.4c-.5 0-1-.7-1.4-1.2h-.5v-.8h1.1q0 .4.5.7h.6v-1q-1.1-.4-1.3-1.7h-.5v-.7h1q0 .4.4.9l.5-.2v-.8q-.9-.5-1.2-1.6h-.6v-1h.9c.2 1.2.8 1.2 1.2 1v-1q-1-.2-1.2-1c-.5-.2-1-1-.5-1h.5q.4.1.7.9h.5v-1.1q-1-.2-1.2-1.4H43l-.1-.6h1q.1.6.8.8l.2-.4v-.7c-.2-1-.7-1.7.3-2.4l-.4-1c-.2-1.9.6-1.3 1.3-1.9q.3-.2.6.2 0 .5.3.7m0 40.4v1A22 22 0 0135.5 66v-1q5.2 3.1 11.6 3.3m0 3.4v4.9l-.2-.3v-1c-1.3.4-2.7.7-4 0-.9-.5-1.2-1.5.2-2q1.2-.8 2.9 0l-.6.7q-2.2-.6-2.2.4.3 1 3.7 0v-2.1q-3.5 0-6.7-.9l-1.5 4.3-.4-1 1-3.6-2-.8-.2.7q1 .3.7 1.6t-2.3 1.5v-1q1.5.2 1.7-.6.1-1-1.7-1v-1l.6.2.3-.7-.9-.5v-.7q1.7.9 3.3 1.4-.5-1.7-1.8-1.8v-.8q1.6.3 2.7 2.4h.9l.1.8q3 .8 6.4.9m-11.6-15h.9l1-4.8v4.9h1.1v-5.9H37l-1.1 4.7-.3-.8zm0-11.4h1.2v2.5l1.1.8v-6h.9l-.4-1.3h-2.8v1.2h1.2v1.6h-1.2zm0-18q.7-1 .5-2.4h-.5zm0 51.7v-1q-2.9-1.3-5.5-3v1.2q2.7 1.6 5.6 2.7M30 17.8V19q2.7-1.5 5.6-2.8v-1q-2.9 1-5.6 2.6m5.6 7q.4 3.4-2.4 2L30 25.2v1.5l2.9 1.3q1.7.6 2.7-.7zm0 3.3a22 22 0 00-5.6 5v1.5q2.4-3.2 5.6-5.3zm0 8h-4.8V59h4.8v-1h-4V37h4zm0 5.2h-3l.4 1.2h.6v1.6q-1.4.3-.5 1.7.4.7 1.3.8.4-.5.3-1.3h1V44h-1v-1.6h1zm0 13.5-.8-3.9H33v5.9h1.2v-5l1 5h.4zm0 10.2a22 22 0 01-5.6-5.4V61a20 20 0 005.6 5zm0 3.8-.2-.1-.4.6.6.2zm0 1.8h-.3q-1.1-1.9-2.8-2c-1 0-1.9 1-.7 3.4l.8-.3q-1.2-1.2-.4-2t1.9.9l-.1.2v.7h1.6zm0 2.5-.8-.2v1l.8.2zM30 63.3v-1.5q.8 0 .8.8 0 .6-.8.7m0 13-.4-.2V75l.4.2zM29.5 18q.3 0 .4-.2V19l-.4.2zm.4 7.2v1.5l-.4-.3v-1.3zm0 7.8v1.6q-.1.4-.4.6v-1.7zm0 26.6V61l-.4-.5V59zm0 2.2v1.5l-.4-.1V62zm-.4 3.2v-.8l.4.4zm0 11.1V75l-2.1-1.4v1.2zm-2.1-56.6v1.2l2.1-1.5V18zm2.1 5.6-2.1-1v1.4l2.1 1zm0 8.4a20 20 0 00-2.1 3.4v2.3l2.1-4zm0 25.5a21 21 0 01-2.1-4v2.3l2.1 3.3zm0 3q-.3 0-.3.6l.3.6zm0 2.2a11 11 0 01-2.1-2.5v.9l.8 1-.8.6v1.2l1.3-1 .7.7.1-.1zm-2.1-32.8V30l.5.3-.5-1.6v-2l1.4 5.1zm0 43.3-4.8-4.1v-1.4q2.2 2.3 4.8 4.3zm-4.8-51.1q2.3-2.4 4.8-4.1v1.2a41 41 0 00-4.8 4.3zm4.8.4v1.5l-.4-.1.4 1.3v2l-1.6-5.4zm0 6v1.4l-4.5-1.6c1.9 2.9 3.9 7 2.3 9.2l-.4.2c1.1-2.8-.5-6-2.2-9v-1.8zm0 6.9v2.3q-1.5 3.7-1.6 7.9c0 4.2.6 5.4 1.6 7.9v2.3a22 22 0 010-20.4m0 24.8v.9l-.9-1Q26 64 24 62.8c0 1.2 1.2 1.8 2.6 2l.9-.6v1.2l-2.2 1.8-.2-1 .8-.8c-3-.8-3-2.4-2.2-4.2q1.6 2.1 2.2-.6l-1.5-2.7-1.7.6v-2.8q.4.6.7 1.6l.6-.3q-.8-1.8-1.3-3.6v-3.7q.3 3.3 1.5 6.1 1.1-1 .4-2.4l.7-.3q.6 1.4-.4 3.6l.3.7-.2.2q1 2.3 2.5 4.1m-4.8 8.9v-1.4l-1.2-1.5v1.6zm-1.2-45.7v1.5l1.2-1.4v-1.4q-.5.7-1.2 1.3m1.2 3.5-1.2-.5 1.2 2.3zm0 21.3-.1-2.6H22V49l-.5.1v1l.7-.1.2 1.6-1 .2v1l1.2-.2v.8zm0 6a2 2 0 00-1.2-1v1.1q.7.7 1 2.8l.2-.1zm-1.2 3.5v-1l.5.4zm0-15.8v-1h1.2l-.5 1zm0-2.2v-1h1.2l-.4 1zm0 28q-1.5-1.7-2.9-3.8v-1.9q1.3 2.3 2.9 4.2zm-2.9-40.5 2.9-3.8v1.5l-2.9 4.2zm2.9-.8v13.3h-2.9v-.7l.3-.4h2.6zm0 14.5h-2.6l-.3.2v.8h2.9zm0 6.7v1h-1l.3 1.8.7-.1v1l-2.9.4v-.8l1-.3-.1-1.8-.9-.1v-1h.3q.4-.4.3-1t-.6-.5v-1.1q1.4-.3 2 2.5zm0 5.7v1H21c-1 0-1 1.4-.3 2q.5 0 .8.3v1l-.1.2-1.1-.2-1 .6-.7.2v-1.3l.1-.1.5.3.5-.4-1-.6v-1l.8.6q-.4-2.4 1.4-2.6zm-2.9 10.6v-1.9a33 33 0 010-32.9v-1.9a34 34 0 000 36.7m0-25-.3.8h.3zm0 2.2v.8H18zm0 4q-1 .2-1.2 1.8 0 1.2 1.2 1.8v-1q-.4 0-.5-.7t.4-.8q0-.2.1 0zm0 5.8h-.3l-.8-1.8-.4.2c.7 1.4 0 2.4-.6 1.7-.9-.7-.3-2.2 0-3.1l-.4-.2c-.6 1.4-1 2.6 0 4 .7 1 1.4.7 2.2.1l.3-.1zm0 4.4-.8-.5-.4.6 1.2.9zm0 1.8-.7.6.4.5.3.2zm76-54.8h301.9v86.5h-302z"/><path fill="#fff" d="M369 61.3v-1.6h.1q1 0 1.7-.7v-4.5l-1.8.7v-1.1q1.3-.4 1.8-1v-.6q0-2.2-1.8-2.5v-1.3h.9q2.1 0 3.3.9 1.4 1.2 1.3 3V58q.1 1.7.8 1.6.6 0 1-.2l.4 1-3.3 1.5q-1 0-1.6-.6l-.8-1zm0-12.6q-2.7.8-4.3 1.9-1 .6-1 1.3c0 .8 1.2 1.4 2 1.4q.7 0 1-.8.4-1.4.8-2a2 2 0 011.3-.5h.2zm0 5.4-3.4 1.1q-2.2.9-2.2 3c0 1.8 1.6 3.7 4 3.7q.7 0 1.6-.6v-1.6c-.8 0-1.8-.8-1.8-2q0-1.5 1.3-2.2.3 0 .5-.3zm-64.4 7.2v-1.6q1 0 1.8-.7v-4.5l-1.8.7v-1.1q1.3-.4 1.8-1v-.6q-.2-2.2-1.8-2.5v-1.3h.8q2.2 0 3.3.9 1.4 1.2 1.3 3V58q0 1.7.9 1.6.6 0 1-.2l.3 1L309 62q-.9 0-1.6-.6l-.7-1zm18.4-9c-.1-.5-.4-2.5-.7-3.2q-1.1-.5-3.1-.5c-3.3 0-5.4 1.8-5.4 4s2.6 3.3 4 4q2.6.8 2.4 2.4c-.2 1.6-.7 1.7-1.8 1.7-1.8 0-3.4-2-4-3.7h-1c0 1.4.3 3.3.4 3.7a7 7 0 004 1.2c2.8 0 5.7-1.3 5.7-4.2 0-2.2-1.8-3.3-4.1-4.2q-2.4-.7-2.5-2.2.1-1.4 1.8-1.5t3.1 2.8zm3.6 6.3c0 1.7-.2 1.8-2 2v1h7v-1c-1.2-.2-1.4-.3-1.4-2v-6.9a3 3 0 012.4-1q2-.1 2.2 2.8v5c0 1.8-.2 2-1.5 2.1v1h6.9v-1c-1.5-.2-1.8-.3-1.8-2V53q0-4.3-4.1-4.4a6 6 0 00-4 1.8v-9l-5.6 1v.9c1.8.1 2 .1 2 1.8zm16-.2q.1 3.6 3.5 3.5.5 0 1.3-.3l2.2-.9-.3-1q-.5.3-1.5.3c-.7 0-1.6-.5-1.6-2.5v-7.1h2.7c.5-.2.5-1.2.2-1.5h-2.9v-3.7l-.4-.2-3.2 2.2v1.7h-1.2l-.8 1 .2.5h1.8zm10.3.2c0 1.7 0 1.8-1.9 2v1h8v-1c-2.1-.2-2.3-.3-2.3-2.1v-5.2q.8-1.8 1.7-1.7.6 0 1.4.6.3.3.8.1 1.4-.5 1.5-2-.2-1.6-2-1.7-1.6 0-3.4 2.8v-2.9q-2.4.8-5.5 1.2v.8c1.7.3 1.7.4 1.7 2zm-48.3-9.9a16 16 0 00-4.4 1.9q-1 .6-1 1.3c0 .8 1.2 1.4 2 1.4q.9 0 1.1-.8.3-1.4.8-2a2 2 0 011.3-.5h.2zm0 5.4-3.3 1.1q-2.4.9-2.4 3c0 1.8 1.6 3.7 4 3.7q.7 0 1.7-.6v-1.6c-.9 0-1.8-.8-1.8-2q0-1.5 1.2-2.2l.6-.3zM278 61.3v-1.6q1 0 1.9-.7v-4.5l-1.9.7v-1.1q1.3-.4 1.9-1v-.6q-.2-2.2-1.9-2.5v-1.3h.8a6 6 0 013.4.9q1.4 1.2 1.3 3V58q0 1.7.8 1.6.6 0 1-.2l.4 1-3.3 1.5q-1 0-1.6-.6l-.8-1zm10.5-2.7c0 1.7-.2 1.8-2 2v1h8v-1c-2.2-.2-2.4-.3-2.4-2.1v-5.2q.9-1.8 1.7-1.7.7 0 1.4.6.3.3.9.1 1.2-.5 1.4-2-.1-1.6-1.9-1.7t-3.5 2.8v-2.9q-2.4.8-5.4 1.2v.8c1.7.3 1.8.4 1.8 2zM278 48.7c-1.7.4-3.5 1.3-4.3 1.9q-1.1.6-1 1.3c0 .8 1 1.4 1.8 1.4q1 0 1.2-.8a5 5 0 01.9-2q.5-.5 1.1-.5h.3zm0 5.4-3.4 1.1q-2.2.9-2.2 3c0 1.8 1.6 3.7 4 3.7q.7 0 1.6-.6v-1.6q-1.7-.1-1.8-2 0-1.5 1.3-2.2l.5-.3zm-30.7 7.2v-1.6q.9 0 1.8-.7v-4.5l-1.8.7v-1.1q1.2-.4 1.8-1v-.6c0-1.5-.9-2.3-1.8-2.5v-1.3h.7a6 6 0 013.4.9q1.4 1.2 1.3 3V58q.1 1.7.8 1.6.9 0 1-.2l.4 1-3.3 1.5q-1 0-1.6-.6l-.8-1zm10.2-2.7c0 1.7-.2 1.8-2 2v1h7v-1c-1.2-.2-1.4-.3-1.4-2v-6.9q1-1 2.5-1 1.8-.1 2 2.8v5c0 1.8 0 2-1.4 2.1v1h7v-1c-1.7-.2-1.8-.3-1.8-2V53q0-4.3-4.3-4.4c-1.5 0-3 .9-4 1.8v-9l-5.4 1v.9c1.8.1 1.8.1 1.8 1.8zm-10.1-9.9c-1.7.4-3.5 1.3-4.4 1.9q-1.1.6-1 1.3c0 .8 1.1 1.4 1.8 1.4q1 0 1.2-.8a5 5 0 01.9-2 2 2 0 011.2-.5h.3zm0 5.4-3.5 1.1q-2.1.9-2.2 3c0 1.8 1.6 3.7 4 3.7q.7 0 1.7-.6v-1.6a2 2 0 01-1.9-2q0-1.5 1.3-2.2l.6-.3zm-55.2 7.8v-1.3l.3.1c1.2 0 2.4-.9 2.4-4.9 0-3.5-1-5.8-2.7-6v-1.2c4.2 0 6.7 3 6.7 6.4 0 4.6-3.3 6.9-6.7 6.9m10-3.3c0 1.6-.1 1.8-1.6 2v1h7.8v-1c-2.2-.2-2.5-.4-2.5-2v-8.2h2.9c.4-.3.5-1.1.4-1.5H206v-.7a20 20 0 01.1-4.3q.1-.7 1-.7c.8 0 2 .6 2.5 1.2q.5.3 1.1 0l.9-1q0-.4-.3-1-.7-.9-2.7-1-1.9.1-3.5 1.5a7 7 0 00-2.7 5.6v.4H201l-.8 1v.5h2zm15.3-15.3v1c2.4.1 2.6.4 2.4 3.8l-.5 6-.6 5q0 1.4-2 1.5v1h7v-1q-2.8-.1-2.8-1.7v-4.5l.4-7.5 5.6 14.3h1l6.1-14.7h.2v11c0 2.7-.2 3-2.4 3.1v1h8.5v-1c-2.1-.2-2.3-.4-2.4-3.1l-.2-10.2c0-2.7 0-2.9 2.3-3v-1h-6l-5.4 12.3-5.2-12.3zm-25.3 5.3a6.7 6.7 0 00-6.8 7c0 3 2.3 6.3 6.8 6.3v-1.3c-1.7-.3-2.7-2.7-2.7-6.1q.2-4.7 2.4-4.7h.3zM138 61.3v-1.6q.9 0 1.8-.7v-4.5l-1.8.7v-1.1q1.2-.4 1.8-1v-.6c0-1.5-.9-2.3-1.8-2.5v-1.3h.7a6 6 0 013.4.9q1.4 1.2 1.3 3V58q.1 1.7.8 1.6t1-.2l.4 1-3.3 1.5q-1 0-1.6-.6l-.8-1zm10.5-2.7c0 1.7-.2 1.8-2 2v1h7.1v-1c-1.3-.2-1.5-.3-1.5-2v-6.8q1.3-1 2.5-1 1.9-.1 2 2.6v5.2c0 1.7-.1 1.8-1.5 2v1h6.8v-1c-1.5-.2-1.7-.3-1.7-2v-6c0-2.3-1.3-4-4-4q-1.1 0-2.4.8l-1.7 1v-1.8a35 35 0 01-5.2 1v.9c1.6.3 1.6.3 1.6 2zm16.5 0c0 1.7-.2 1.8-2.1 2v1h7.8v-1c-1.9-.2-2-.3-2-2v-3.3h.2q.4-.1.9.8l3.8 5.5h5v-1a3 3 0 01-2.3-1.3 55 55 0 01-4.3-5.7l2.2-2.4c.8-.8 1.5-1.1 3.4-1.5v-1l-6 .3v1q1.6 0 .8 1c-.5.5-1.2 1.7-2 2.3q-.6.9-1.8 1V41.4l-5.4 1v.9c1.7.2 1.8.2 1.8 1.8zm-42.3 2.9q3-.1 5-1c1.4-1 2.6-2.3 2.6-4.3 0-2.7-2.4-4.4-5.4-4.8 2-.3 4.2-1.5 4.2-4q0-2.1-1.6-3.2-1.5-1-4.8-1v1.3q2.3.4 2.5 3.2 0 2.8-2.5 3.3v1.5q3.1.6 3.3 4c0 2.5-1.6 3.7-3.3 4zm15.4-12.8a14 14 0 00-4.4 1.9q-1.1.6-1 1.3c0 .8 1 1.4 1.8 1.4q1 0 1.2-.8a5 5 0 01.9-2 2 2 0 011.2-.5h.3zm0 5.4-3.5 1.1q-2.1.9-2.2 3c0 1.8 1.6 3.7 4 3.7q.7 0 1.7-.6v-1.6a2 2 0 01-1.9-2q0-1.5 1.3-2.2l.6-.3zm-21.5 3.8v-11c0-2.3-.3-2.5-2.2-2.7v-1h8.3v1.3h-.8q-1.1 0-1.3.2-.3.1-.2 1.3v5.2h.7l1.6-.2v1.5l-1.7-.2h-.6V58c0 1.8.3 2.5 1.8 2.5h.5v1l-1.5.2h-7v-1c2.1-.2 2.4-.4 2.4-2.7M155 11.6h3.6V8.8H155zm185.3 25.7 2.4 1 4.1-3.8 3.9 3.8 2.4-1-4.7-4.4h-3.2zm-14.9-18h-3.2V33h-3.6V19.4h-6.2q1.6.7 1.6 2.9c0 2.7-2.2 5-5.2 5.4A4 4 0 00312 30a5 5 0 002-.4v3q-1 .3-2 .3c-2.7 0-5.4-2.1-6.8-5.2q-.7 0-2-.8l1.2-2.4q1.3.6 2.4.6c2 0 3.6-1.2 3.6-2.8 0-1.7-1.6-3-3.6-3h-7V33h-3.6V19.4H291v3.8h-7.2q-.8 0-.8.7 0 .9 1.2 1l2-.4c3 0 5.6 1.9 5.6 4.2q0 1.6-1.6 3.2l-2.8-1.6q.8-.7.8-1.6c0-.7-1-1.3-2-1.3-2 0-3.6 1.2-3.6 2.6 0 1.7 2.3 3.2 5.2 3.2h3.2v2.6h-3.2c-5 0-8.8-2.8-8.8-6.2q0-2 2-3.5-2-1.4-2-2.6c0-1.6 1.8-2.9 4-2.9h4.4v-1.2H274v13.5h-3.6v-4.2h-5.2c0 1-1.3 2-2.8 2-1.8 0-3.2-1.2-3.2-2.7q.1-2 2.4-2.2v-6.4h-3.8v-2.6h96v2.6h-3.3v4.5h-4.8c-2.2 0-4 1.1-4 2.5 0 2 2.3 3.6 5.2 3.6a8 8 0 004.2-1.3L353 31q-3.2 1.7-6 1.8c-3.9 0-7.3-1.8-8.4-4.5q-1.9 1.9-5 1.9c-4 0-7-3-7-6.4v-4.5zm13.1 5.7c.9-2.4 3.9-4 7.4-4h1.2v-1.6h-16zm-8.2-1.1c0 1.8 1.6 3.3 3.6 3.3q1.8 0 2.8-1.4l-6.4-4.8zm-65-4.5v6.4h5.3v-6.4zm-39 0h1.6v5.4c0 2.8 2.5 5.1 5.6 5.2q1.8 0 3.2-1.3v4.2h3.6v-8q1-1 2.8-1c1.3 0 2.4 1 2.4 2.2q-.2 2.1-2.4 2.3-1 0-1.6-.4v3q.7.3 1.6.3c3.3 0 6-2.3 6-5s-2.7-5-6-5q-1.8 0-2.8.6v-2.5h10.5v-2.6h-42.5v2.6h2v3.5H207v2.9h3.2v7h3.6V19.5h5.7V33h3.6V19.4zm5.2 5.4v-5.4h5.2v5.4q-1.3 2.2-3.2 2.3-1.8-.2-2-2.3M215.2 9.4c0 2.8 3 5.1 6.4 5.1 3.6 0 6.4-2.3 6.4-5.1h-3.2c0 1.4-1.4 2.6-3.2 2.6s-3.2-1.2-3.2-2.6zm-23.6 16c0 4.1 3.8 7.5 8.4 7.5 3.8 0 6.8-2.2 6.8-4.9q0-2.7-2.8-4.1 2-1.5 2-3.3c0-2.3-2.8-4.1-6.4-4.1q-3.9 0-6 2.2L196 21q1.7-1.6 3.6-1.6c1.6 0 2.9.5 2.8 1.2q-.2 1.8-2.4 2h-2v2.9h2c1.8 0 3.2 1.1 3.2 2.5 0 1.1-1.4 2-3.2 2-2.8 0-5.2-2.2-5.2-4.9zm-33.9-6h-3.2v13.5H151v-3.3.4q-1.9 1.2-4.8 1.2c-4.2 0-7.6-2.4-7.6-5.4 0-2.8 3.4-5.2 7.6-5.2q3 0 4.8 1.3v-2.5h-14v-2.6h13q-3.3-2.6-6-2.7-1.6 0-2.6.8l-1.8-2.3a6 6 0 013.6-1.1q3.5 0 9.8 5.1c-2-3.5-3.7-5.8-5.2-5.8q-.8 0-1.6.5l-1.8-2q1.1-.6 3.6-.5c2.4 0 5.4 3.2 7.6 8h27.7v2.6H172v1.9q1.1-.6 2.8-.7c3.7 0 6.8 2.4 6.8 5.2s-3 5.1-6.8 5.1q-1.4 0-2-.3v-2.9q.6.3 2 .3c1.7 0 3.2-1 3.2-2.2s-1.5-2.3-3.2-2.3q-1.6 0-2.8.7v8.7h-3.6v-3.3.8q-1.1.5-2.8.5c-3.8 0-6.8-2.3-6.8-5.1s3-5.2 6.8-5.2q1.6 0 2.8.5v-1.7zm4.3 6.4c0 1.4 1.6 2.6 3.6 2.6a5 5 0 002.8-.7v-4q-1.1-.5-2.8-.5c-2 0-3.6 1.2-3.6 2.6m-19.9 0c0 1.5 2 2.7 4.2 2.7q2.4 0 2.8-.3l-6.4-3.7q-.6.4-.6 1.3m2.2-2.3 6.2 3.6q.4-.4.4-1.3c0-1.4-2.1-2.6-4.8-2.6q-1 0-1.8.3M187 75.1v-1.4h4.5v1.4H190v8h-1.5v-3.8h-2.6v.6l-.2.5-.3.1q-.4 0-1.3-.8t-.9-1.3l.1-.3.4-.2h.7v-2.6q0-.3-.2-.5t-.5-.3l-.2.2-.2.4.1.5q.1.2.3.2V77q-.8 0-1.3-.5a2 2 0 01-.6-1.4q0-.8.6-1.4t1.3-.6q.9 0 1.6.6.6.7.6 1.6v2.6h2.6v-2.8zm5.6 8h1.5v-8h1.5v-1.4H191v1.4h1.5zm2.6-8v-1.4h7v1.4h-1.3v1.6q0 1-.4 1.6t-1 .7h-.5l-.3-.1 2.7 3.6-1.1.8-4.7-6.3 1.3-1q.2.7.7 1.2t1 .4l.6-.3.2-.6v-1.6zm6.6 0h6.5v1.3h-3.4q-1 0-1.7.6t-.7 1.5q0 1.2.8 2.4t2.2 2.2l.9-1q-1.1-.8-1.8-1.7-.6-1-.6-1.9l.3-.5q.2-.2.6-.2h3.4V83h1.5v-8h1.5v-1.3h-9.5zm18.7 8.2-4-6.1 1.3-.9.7 1.1q.3.4.5.4l.5-.2.2-.5v-2h-3.6v-1.4h10.7v1.4h-1.5v8h-1.5V79H222l-.6-1.4h2.3V75h-2.6v2q0 .9-.4 1.5-.3.6-.9.5h-.3l-.2-.1 2.4 3.5zm5.9-8.2h4.2v1.6l-.2.6-.6.3q-.5 0-1-.4L228 76l-1.3.9 4.7 6.3 1.1-.8L230 79h.7q.6 0 1-.6t.5-1.6v-1.6h1.2v-1.4h-7zm11.7 8v-2l-.6.3h-1a3 3 0 01-2-.7q-.8-.8-.8-1.9t.9-2 2.2-.8l.9.1-.4 1.3h-.8q-.4 0-.9.4t-.4 1 .4 1 1 .3l.8-.2q.4-.2.7-.6v-4.2H233v-1.4h11.3v1.4h-4.7v1.6q.2-.3.6-.4t1-.2q1 0 1.7.8.6.7.7 1.8 0 .9-.5 1.7l-1.3 1.6-1.2-1q.8-.6 1.1-1.2t.4-1q0-.5-.3-1-.3-.3-.7-.3-.5 0-.9.3l-.6.7V83zm7.4 0h1.5v-8h1.5v-1.4H244v1.4h1.5zm2.6-8v-1.4h7v1.4h-1.3v1.6q0 1-.4 1.6t-1 .7h-.5l-.3-.1 2.7 3.6-1.2.8-4.6-6.3 1.2-1q.3.7.8 1.2t1 .4l.5-.3q.3-.3.3-.6v-1.6zm17 8v-2l-.7.3h-.9a3 3 0 01-2-.7q-.9-.8-.9-1.9t1-2q.8-.8 2.1-.8l.9.1-.4 1.3h-.8q-.3 0-.8.4t-.5 1 .4 1 1 .3l.8-.2.7-.6v-4.2h-5v-1.4h11.4v1.4h-4.8v1.6q.2-.3.6-.4t1-.2q1 0 1.7.8.7.7.7 1.8 0 .9-.5 1.7l-1.3 1.6-1.1-1q.7-.6 1-1.2t.4-1-.3-1-.7-.3-.8.3l-.7.7V83zm7.3 0h1.5v-8h1.5v-1.4h-4.5v1.4h1.5zm13.8 0q-1.8 0-3.3-1.7t-2.1-4.1l1.3-.5q.6 2.1 1.7 3.5t2.4 1.3q.5 0 .9-.4t.3-1l-.4-1.1a1 1 0 00-1-.5h-1.5l-.5-1.4h1.8q.5 0 .9-.2.3-.3.3-.8l-.2-.5-.4-.6h-6.2v-1.4h9.7v1.4h-1.7q.3.5.3 1.1t-.2 1.1l-.6.6q.6.3.9 1t.3 1.3a3 3 0 01-.8 2 3 3 0 01-2 .8m11.3 0h1.5v-8h1.5v-1.3h-10.8v1.4h4.3v.6h-1.5q-1 0-1.5.6t-.6 1.3q0 .5.3.9.4.4 1 .6l-.5.5v.6q0 1 .8 1.6t2.2.6q1 0 2-.3.8-.3 1.3-1zm-3.4-2q-.6 0-1-.2t-.5-.6.4-.6.8-.3h1.4l-.5-1h-2l-.6-.2-.3-.5q0-.2.2-.3l.4-.2h3.1v-2h2v4.4q-.5.7-1.5 1.2zm6-6v-1.3h9v1.4h-1.4v8H306v-3.8h-3v1.2l-.3.1q-.4 0-1.3-.9t-1-1.2.2-.4l.3-.2h.7v-2.8zm3.2 3h2.9v-3h-3zm-131.7 30q.4-2.3 1.6-3.7 1.1-1.4 2.6-1.4l.8.1q.3.2.3.4l-.1.3-.6.7-.6 1.2-.5 2q-.3 1.5.2 2.6.5 1 1.5 1 2 0 3-.8-.2 1.2-1.4 2.1-1.3.9-3 .9-2.1 0-3.2-1.5-1-1.4-.6-3.8m.4-6.8h11.2l-.2 1.2h-11.2zm6.6 8q1 0 2-.8t1.1-2.1q.3-1.5-.4-2.5t-1.7-1q-.6 0-1.1.2-.5.1-.6.4v.2l.3.1q.4 0 .5.6.2.5 0 1.2 0 .7-.6 1.3-.4.5-1 .5h-1l-.1.2q-.1.6.7 1.2t1.9.5m9 1.6q-1.2 1.2-2.7 1.2t-2.2-1q-.7-1.2-.4-3t1.4-2.9 2.6-1.1q1 0 1.5.5t.4 1.4l-.6-.1h-.4q-.3 0-.8.6a3 3 0 00-.7 1.5q-.1.8.2 1.3t.9.6q.4 0 .7-.3l.6-2.2.7-2.2v-.9q-.2-.3-.4-.3h-.3v-.3q0-.3.5-.5l1.2-.2q1 0 1.5.6t.8 1.5q1.2-1 2.6-1t2.2 1 .3 3a5 5 0 01-1.2 2.4q-1 1-2.1 1-.6 0-1-.4-.3-.4-.3-1 .4 0 .8-.6t.6-1.2-.2-1.4-1-.5q-.4 0-.9.3 0 .5-.4 1.6l-.5 1.5v.9q.2.4.5.4h.4v.2q-.1.7-.7 1.1t-1.4.5q-.9 0-1.5-.6t-.7-1.4m-4.7-9.6-.2 1.2h16.1l.2-1.2zm23 10.4q-1.5 0-2.4-1-.8-.8-.5-2.3 0-.5.4-1.5l.4-1.5v-1q-.1-.5-.4-.8.1-.4.6-.5l1.3-.1q1 0 1.5.5t.3 1.5l-.4 1.7-.4 1.7q-.1.6.2 1 .2.5.7.5t1-.3l.7-2.2q.5-1.4.6-2.2v-.8q-.1-.4-.3-.3l-.3-.1v-.3q0-.3.6-.5l1.1-.2q1.3 0 1.9.9c.6.9.5 1.4.3 2.4q-.1.7-.5 1.7l-.4 1.7v.9q.1.4.4.4h.4l.4-.2v.3q0 .6-1 1.3-.8.6-1.6.6a2 2 0 01-1.3-.6q-.6-.5-.9-1.4-1 .6-2.3.7m-2.8-10.4h12l-.2 1.2h-12zm18.2-5.7q2.7 0 5.3 2.3l.8.6.5.2h.2v.3q-.1.6-1 1.3t-1.9.7q-.4 0-1-.4t-1-1.3l-1-1q-.6-.5-1.2-.5t-1.3.5q-.6.5-.7 1.1v.7q0 .4-.5.6l-1 .2q-.9 0-1.4-.4t-.3-1.1q.3-1.7 1.8-2.8 1.6-1 3.7-1m-6.5 5.7-.2 1.2h6.4l.2-1.2zm.8 3.9v-.8q-.1-.4-.4-.3l-.2-.1v-.3q0-.3.5-.5l1.1-.2q1.3 0 2 .9.5.9.2 2.4 0 .5-.4 1.7l-.5 1.7v.9q.2.4.4.4h.4l.4-.2v.3q0 .6-.9 1.3-.8.6-1.6.6-1.2 0-1.8-1.2t-.3-2.8q.1-.8.6-2.2zm8 3.7q0 .6.5 1t1.2.4q.4 0 .9-.4h.1v-.1q.2 0 .2.2v.4q-.2 1-1.1 1.8t-2 .8a2 2 0 01-1.6-.7q-.7-.6-1-1.8l-.4-1q-.2-.3-.4-.3h-.1v-.5l.3-.1q1.4-.4 2.4-1.2t1.1-1.6-.2-1.2a1 1 0 00-.9-.6l-.2-.1-.1-.1q0-.4.7-.6.7-.3 1.5-.3 1.3 0 2 1 .7.8.5 2-.2 1-1.2 1.9a5 5 0 01-2.3 1m-2.6-7.5h7.8l-.2 1.2h-7.8zm7.5 0-.2 1.2h11.6l.2-1.2zm4.8 9.7q-1.4 1.3-2.8 1.3-1.5 0-2.2-1.1t-.4-3 1.5-2.9q1-1 2.6-1 .9 0 1.4.5.6.6.4 1.4h-.5l-.2-.1q-.6 0-1 .5-.6.6-.8 1.5-.1.8.2 1.3t.9.6q.4 0 .8-.3.1-.9.6-2.2.5-1.5.6-2.3v-.8q-.1-.4-.3-.3l-.3-.1v-.3q0-.3.6-.5l1.1-.2q1.3 0 1.9.9t.3 2.4q0 .5-.5 1.7l-.4 1.7v.9q.1.4.4.4h.4l.4-.2v.3q0 .6-1 1.3-.8.6-1.6.6-.5 0-1.4-.6-.6-.5-.7-1.4m7.3-5.8v-.8q-.1-.4-.4-.3l-.2-.1v-.3q0-.3.5-.5l1.1-.2q1.3 0 2 .9.5.9.2 2.4 0 .5-.4 1.7l-.5 1.7v.9q.2.4.4.4h.4l.4-.2v.3q0 .6-.9 1.3-.8.6-1.6.6-1.2 0-1.8-1.2t-.3-2.8q.1-.8.6-2.2zm-.8-3.9h6.4l-.2 1.2h-6.4zm8.7 7.6q.2.6.6 1 .5.4 1.2.4.4 0 .9-.4h.1v-.1q.2 0 .2.2v.4a3 3 0 01-1.1 1.8q-.9.8-2 .8a2 2 0 01-1.6-.7q-.7-.6-1-1.8l-.4-1q-.2-.3-.4-.3h-.1v-.5l.3-.1q1.4-.4 2.4-1.2t1.1-1.6-.2-1.2a1 1 0 00-.9-.6l-.2-.1-.1-.1q0-.4.7-.6.7-.3 1.5-.3 1.3 0 2 1 .7.8.5 2-.2 1-1.2 1.9a5 5 0 01-2.3 1m-2.6-7.5-.2 1.2h7.8l.2-1.2zm16 6.8q.5-2.4 1.6-3.8t2.6-1.4l.8.1q.4.2.3.4v.3l-.7.7-.5 1.2-.6 2q-.2 1.5.2 2.6.5 1 1.5 1 2 0 3.1-.8-.2 1.2-1.5 2.1t-2.9.9q-2.2 0-3.2-1.5-1-1.4-.7-3.8m.5-6.8h11.1l-.2 1.2h-11.1zm6.5 8q1 0 2-.8a4 4 0 001.2-2.1q.2-1.5-.4-2.5t-1.7-1q-.7 0-1.2.2-.4.1-.5.4v.2l.3.1q.3 0 .5.6v1.2a2 2 0 01-.6 1.3q-.5.5-1 .5h-1.1v.2q-.2.6.6 1.2t2 .5m9 1.6q-1.3 1.2-2.7 1.2-1.6 0-2.3-1-.7-1.2-.4-3 .4-1.8 1.5-2.9 1-1.1 2.5-1.1 1 0 1.6.5.5.6.4 1.4l-.6-.1h-.4q-.3 0-.9.6-.5.6-.6 1.5-.2.8.1 1.3t.9.6.8-.3l.6-2.2q.5-1.4.6-2.2v-.9q-.1-.3-.3-.3h-.3l-.1-.3q0-.3.6-.5l1.1-.2q1 0 1.6.6t.7 1.5q1.2-1 2.7-1 1.4 0 2.1 1 .7 1.1.4 3a5 5 0 01-1.3 2.4q-1 1-2 1-.7 0-1-.4t-.4-1q.4 0 .9-.6t.5-1.2-.2-1.4-.9-.5q-.4 0-1 .3 0 .5-.4 1.6l-.4 1.5v.9q.1.4.4.4h.4v.2q0 .7-.7 1.1t-1.4.5q-.8 0-1.4-.6t-.8-1.4m-4.7-9.6-.2 1.2h16.2l.2-1.2zm19.8 7a5 5 0 011.4-2.9q1.2-1.2 2.6-1.2 1 0 1.5.6t.4 1.4l-.7-.1-.8.1 1 3 .5-2 .6-2v-.8q-.1-.4-.3-.3l-.3-.1v-.3q0-.3.5-.5l1.2-.2q1.3 0 1.9.9t.3 2.4q0 .5-.5 1.7l-.4 1.7v.9q.1.4.4.4h.3l.4-.2.1.1v.2q0 .6-1 1.3-.8.6-1.6.6t-1.4-.6-.7-1.4l-1.4 1-1.4.3q-1.5 0-2.3-1-.7-1.2-.3-3m4.7 1.8-1-3.3q-.3.2-.4.6l-.3.8q-.1.8.2 1.4t.9.6zm-4.1-8.8H305l-.2 1.2h-11.6zm7.7-1.4q0 .4-.8 1-.8.4-1.5.4-.5 0-.8-.5t-.6-1.4l-.3-1q-.3-.3-.6-.3h-.6V98q0-.3.5-.7l1-.7 1-.3q.5 0 .8.3t.5.7l.6 1.8.3.5.3.2h.2m3.8 0h-.2q-.5 0-.8-.6-.2-.5-.2-1.4.2-1.1-.3-1.8-.6-.8-1.5-.8l-1.2.2q-.6.3-.6.7l.3.1q.4 0 .6.7t.1 1.8q0 1 .4 1.7.4.8 1.3.8.6 0 1.3-.5t.8-.9m1.3-4.3q.7 0 1 .5.5.4.4 1t-.7 1-1.2.4-1.1-.4-.3-1q0-.6.7-1a2 2 0 011.2-.5m3.3 15.4q-1.2 1.2-2.7 1.2t-2.2-1q-.7-1.2-.4-3t1.4-2.9 2.6-1.1q.9 0 1.5.5t.4 1.4l-.6-.1h-.4q-.3 0-.8.6a3 3 0 00-.7 1.5q-.1.8.2 1.3t.8.6q.4 0 .8-.3l.6-2.2c.5-1.4.6-1.7.6-2.2v-.9q0-.3-.3-.3h-.3v-.3q0-.3.5-.5l1.2-.2q1 0 1.5.6t.8 1.5q1.2-1 2.6-1t2.1 1 .4 3a5 5 0 01-1.2 2.4q-1 1-2.1 1-.6 0-1-.4-.3-.4-.3-1 .4 0 .8-.6t.6-1.2q0-.8-.2-1.4t-1-.5q-.4 0-.9.3 0 .5-.4 1.6l-.5 1.5v.9q.2.4.5.4h.4v.2q-.1.7-.7 1.1t-1.4.5a2 2 0 01-1.5-.6q-.6-.5-.7-1.4m-4.8-9.6-.2 1.2h16.2l.2-1.2zm-74 19c-5.6-2.6-6.6-2-5.8-2.3 21.3-2.4 42.3-5.9 79.8 1a261 261 0 00-74 1.3"/></svg>