<svg xmlns="http://www.w3.org/2000/svg" fill="none" viewBox="0 0 64 64">
  <path fill="#f15a29" d="m35.18 57.62-24.97.01-.01-.67 18.39-.73c3.49-.14 6.88-.32 10.15-1.44 6.73-2.26 12.09-6.85 13.66-12.55 1.7-6.1-2.19-12.03-9.52-12.55 6.21-1.82 11.5-5.77 12.9-10.86 1.84-6.6-1.47-9.93-7.06-11.15 9.3-.15 16.56 2.99 14.1 11.92-1.41 5.08-6.83 8.95-13 10.64a10.4 10.4 0 0 1 9.29 13.5c-2 6.28-7.04 10.18-13.77 12.43-3.28 1.13-6.66 1.31-10.16 1.45" style="fill:#f15a29;fill:color(display-p3 .9451 .3529 .1608);fill-opacity:1"/>
  <path fill="#f15a29" d="m22.08 54.45-11.8.57c0-.3-.02-.4-.05-.69l29.79-8.63.02-.48-30.2 7.3c-.1-.3-.12-.37-.25-.64L41.31 34.2l-.2-.5L8.67 50.37c-.2-.28-.17-.3-.4-.54l37.71-35.7-.33-.4-38.8 34.89c-.19-.13-.28-.24-.48-.36L33.91 7.92l-.49-.14-28.7 39.73-.48-.15L20 8.35l-.42-.05L1.81 47.02l-.66.01-.15.02L12.45 5.52l21.38.07C43.95 5 51.94 7.75 49.31 17.24c-1.4 5.08-6.7 9.03-12.87 10.72l-.03.13c7.32.51 11.45 6.43 9.76 12.54-1.58 5.69-7.21 10.13-13.94 12.39-3.28 1.12-6.67 1.3-10.15 1.43" style="fill:#f15a29;fill:color(display-p3 .9451 .3529 .1608);fill-opacity:1"/>
</svg>
