<svg xmlns="http://www.w3.org/2000/svg" fill="none" viewBox="0 0 64 64">
  <g clip-path="url(#clip0_58_1459)">
    <path fill="#e7262b" d="M25.07 34.18c-2.86-1.2-4.97-2.7-4.51-6.77.6-5.42 9.18-11.6 11.9-14.76 1.95-2.1 2.4-7.53 2.4-7.53s2.86 5.87-.45 10.84c-1.36 1.96-8.13 8.59-9.64 12.8-.6 1.66-.9 3.62.3 5.42" style="fill:#e7262b;fill:color(display-p3 .9059 .149 .1686);fill-opacity:1"/>
    <path fill="#e7262b" d="M20.1 29.06c-2.86-1.2-5.12-3.16-4.66-7.22.75-5.43 9.33-11.45 12.2-14.46C29.58 5.28 30.18 0 30.18 0s2.71 6.02-.6 10.84c-1.35 1.96-8.28 8.44-9.79 12.65-.6 1.5-1.05 3.47.3 5.57" style="fill:#e7262b;fill:color(display-p3 .9059 .149 .1686);fill-opacity:1"/>
    <path fill="#e7262b" d="M38.93 29.82c2.86 1.2 4.97 2.7 4.51 6.77-.6 5.42-9.18 11.6-11.9 14.76-1.95 2.1-2.4 7.53-2.4 7.53s-2.86-5.87.45-10.84c1.36-1.96 8.13-8.59 9.64-12.8.6-1.66.9-3.62-.3-5.42" style="fill:#e7262b;fill:color(display-p3 .9059 .149 .1686);fill-opacity:1"/>
    <path fill="#e7262b" d="M43.9 34.94c2.86 1.2 5.12 3.16 4.66 7.22-.75 5.43-9.33 11.45-12.2 14.46-1.95 2.1-2.55 7.38-2.55 7.38s-2.71-6.02.6-10.84c1.35-1.96 8.28-8.44 9.79-12.65.6-1.5 1.05-3.47-.3-5.57" style="fill:#e7262b;fill:color(display-p3 .9059 .149 .1686);fill-opacity:1"/>
    <path fill="#1d4481" d="M34.26 39c-1.2 2.86-2.71 4.97-6.78 4.52-5.42-.6-11.6-9.19-14.76-11.9-2.1-1.95-7.52-2.4-7.52-2.4s5.87-2.87 10.84.45c1.96 1.35 8.58 8.13 12.8 9.63 1.5.46 3.61.76 5.42-.3" style="fill:#1d4481;fill:color(display-p3 .1137 .2667 .5059);fill-opacity:1"/>
    <path fill="#1d4481" d="M29.14 43.82c-1.2 2.86-3.16 5.12-7.23 4.67-5.42-.75-11.44-9.34-14.46-12.2-2.1-1.96-7.37-2.56-7.37-2.56s6.02-2.7 10.84.6c1.96 1.36 8.43 8.29 12.65 9.8a5.4 5.4 0 0 0 5.57-.3" style="fill:#1d4481;fill:color(display-p3 .1137 .2667 .5059);fill-opacity:1"/>
    <path fill="#1d4481" d="M29.74 25c1.2-2.86 2.71-4.97 6.78-4.52 5.42.6 11.6 9.19 14.76 11.9 2.1 1.95 7.52 2.4 7.52 2.4s-5.87 2.87-10.84-.45c-1.96-1.35-8.58-8.13-12.8-9.63-1.5-.46-3.61-.76-5.42.3" style="fill:#1d4481;fill:color(display-p3 .1137 .2667 .5059);fill-opacity:1"/>
    <path fill="#1d4481" d="M34.86 20.18c1.2-2.86 3.16-5.12 7.23-4.67 5.42.75 11.44 9.34 14.46 12.2 2.1 1.96 7.37 2.56 7.37 2.56s-6.02 2.7-10.84-.6c-1.96-1.36-8.43-8.29-12.65-9.8a5.4 5.4 0 0 0-5.57.3" style="fill:#1d4481;fill:color(display-p3 .1137 .2667 .5059);fill-opacity:1"/>
  </g>
  <defs>
    <clipPath id="clip0_58_1459">
      <path fill="#fff" d="M0 0h64v64H0z" style="fill:#fff;fill-opacity:1"/>
    </clipPath>
  </defs>
</svg>
